# xmcd
#
# Track frame offsets:
#	150
#	23632
#	39125
#	60248
#	78317
#	101412
#	117153
#	142812
#	168487
#	198912
#	226622
#
# Disc length: 3234 seconds
#
# Revision: 1
# Processed by: cddbd v1.5.2PL0 Copyright (c) Steve Scherf et al.
# Submitted via: audiograbber 1.83.01
#
DISCID=710ca00b
DTITLE=Various Artist - Limhamn-Bronshoj Bluesfestival 2003
DYEAR=2003
DGENRE=Blues
TTITLE0=Kenn Lending - Psychedelic mind
TTITLE1=Troels Jensen - She's got a hold on me
TTITLE2=Borge Biceps - I hear somebody callin' my name
TTITLE3=Stella - The weight
TTITLE4=Midnight Blues - Graceland
TTITLE5=Sir Asling and the T-Bone Orchestra - T-Bone Boogie
TTITLE6=Blue Pearls - Watch out
TTITLE7=Big Dix Blues Band - Trouble in mind
TTITLE8=Paul Banks - Stealing
TTITLE9=Esben Just - Sick and tired
TTITLE10=Too Bad Jim - Checkin' up on my baby
EXTD=
EXTT0=
EXTT1=
EXTT2=
EXTT3=
EXTT4=
EXTT5=
EXTT6=
EXTT7=
EXTT8=
EXTT9=
EXTT10=
PLAYORDER=
